<svg enable-background="new 0 0 60.32 56.93" viewBox="0 0 60.32 56.93" xmlns="http://www.w3.org/2000/svg"><path d="m49 20.4 8.06 8.07-8.06 8.06" fill="none" stroke="#0e93d2" stroke-miterlimit="10" stroke-width="4.606"/><path d="m15.27 33.37 2.07-3.05c1.1 1.09 2.78 2.01 4.88 2.01 1.32 0 2.14-.46 2.14-1.21 0-2.01-8.59-.34-8.59-6.2 0-2.55 2.14-4.83 6.04-4.83 2.44 0 4.56.73 6.18 2.12l-2.14 2.94c-1.28-1.07-2.94-1.6-4.44-1.6-1.14 0-1.64.39-1.64 1.05 0 1.87 8.59.46 8.59 6.11 0 3.05-2.26 5.08-6.34 5.08-3.08 0-5.22-.98-6.75-2.42" fill="#0e93d2"/><path d="m35.22 27.06c-1.53 0-2.12.91-2.26 1.71h4.54c-.09-.78-.66-1.71-2.28-1.71m-5.84 2.94c0-3.19 2.39-5.77 5.84-5.77 3.26 0 5.63 2.39 5.63 6.13v.8h-7.84c.25.98 1.16 1.8 2.76 1.8.78 0 2.05-.34 2.69-.94l1.53 2.3c-1.09.98-2.92 1.46-4.61 1.46-3.4.01-6-2.2-6-5.78" fill="#0e93d2"/><path d="m45.89 41.07-11.17 11.16c-3.59 3.59-9.47 3.59-13.07 0l-9.25-9.25m.01-29.03 9.24-9.24c3.59-3.59 9.47-3.59 13.07 0l11.11 11.3" fill="none" stroke="#0e93d2" stroke-linejoin="round" stroke-miterlimit="10" stroke-width="4.014"/><g fill="#0e93d2"><path d="m4.08 28.68c0 1.13-.91 2.04-2.04 2.04s-2.04-.91-2.04-2.04.91-2.04 2.04-2.04 2.04.92 2.04 2.04"/><path d="m7.88 36.41c0 1.13-.91 2.04-2.04 2.04s-2.04-.91-2.04-2.04.91-2.04 2.04-2.04c1.12 0 2.04.91 2.04 2.04"/><path d="m7.53 20.96c0 1.13-.91 2.04-2.04 2.04s-2.04-.91-2.04-2.04.91-2.04 2.04-2.04c1.12 0 2.04.91 2.04 2.04"/></g></svg>