<svg enable-background="new 0 0 58.44 58.44" viewBox="0 0 58.44 58.44" xmlns="http://www.w3.org/2000/svg"><g fill="#fff"><path d="m35.1 41.04-5.88-5.88-5.88 5.88-1.6-1.6 6.68-6.68c.44-.44 1.16-.44 1.6 0l6.68 6.68z"/><path d="m19.02 36.61-1.6-1.6 5.88-5.88-5.88-5.88 1.6-1.6 6.68 6.68c.44.44.44 1.16 0 1.6z"/><path d="m29.22 25.86c-.29 0-.58-.11-.8-.33l-6.68-6.68 1.6-1.6 5.88 5.88 5.88-5.88 1.6 1.6-6.68 6.68c-.22.22-.51.33-.8.33"/><path d="m29.22 58.44 29.22-29.22-29.22-29.22-29.22 29.22z"/><path d="m11.08 11.08h36.29v36.29h-36.29z" transform="matrix(.7071 -.7071 .7071 .7071 -12.1039 29.2201)"/><path d="m39.94 37.37-7.89-7.89 7.89-7.88 2.65 2.65-5.24 5.23 5.24 5.24z"/></g></svg>