<svg enable-background="new 0 0 166.53 166.52" viewBox="0 0 166.53 166.52" xmlns="http://www.w3.org/2000/svg"><g fill="#d9e6ee"><path d="m109.33 66.24h-9.58v12.23h-12.23v9.58h12.23v12.23h9.58v-12.23h12.23v-9.58h-12.23z"/><path d="m57.2 100.28h9.57v-12.23h12.24v-9.58h-12.24v-12.23h-9.57v12.23h-12.24v9.58h12.24z"/><path d="m26.66 56.6-26.66 26.66 26.66 26.66 8.96-8.95-17.71-17.71 17.71-17.7z"/><path d="m166.53 83.26-26.67-26.66-8.95 8.96 17.7 17.7-17.7 17.71 8.95 8.95z"/><path d="m83.26 17.91 17.71 17.71 8.95-8.96-26.66-26.66-26.66 26.66 8.96 8.96z"/><path d="m83.26 166.52 26.66-26.66-8.95-8.95-17.71 17.7-17.7-17.7-8.96 8.95z"/></g></svg>