<svg version="1.1" id="rotated-square" xmlns="http://www.w3.org/2000/svg" x="0px" y="0px" viewBox="0 0 469.2 180.4" style="enable-background:new 0 0 469.2 180.4;" xml:space="preserve">
	<style type="text/css">
		.rect{fill:none;stroke:#FFFFFF;stroke-width:6;stroke-miterlimit:10;}
		.question{fill:#FFFFFF;}
		.corner{fill:none;stroke:#A2A9AD;}
	</style>
	<polyline class="corner left" points="178.9,70.1 26.1,70.1 26.1,170.5"/>
	<polyline class="corner right" points="290.2,70.1 443.1,70.1 443.1,170.5"/>
	<g>
		<rect class="rect" x="193.8" y="30.6" transform="matrix(0.7071 -0.7071 0.7071 0.7071 18.5217 186.0071)" width="80" height="80"/>
		<path class="question" d="M221.2,52.4c0.8-0.6,1.6-1.2,2.5-1.8s1.8-1,2.9-1.5c1-0.4,2.1-0.7,3.3-1c1.2-0.2,2.4-0.4,3.8-0.4 c1.9,0,3.6,0.3,5.2,0.8c1.5,0.5,2.8,1.2,3.9,2.2c1.1,0.9,1.9,2.1,2.5,3.4c0.6,1.3,0.9,2.8,0.9,4.4c0,1.5-0.2,2.9-0.6,4 s-1,2.1-1.6,2.9c-0.7,0.8-1.4,1.6-2.2,2.2c-0.8,0.6-1.5,1.2-2.2,1.7c-0.7,0.5-1.3,1-1.8,1.5s-0.9,1.1-1,1.7l-0.9,4.3h-6.5 l-0.7-4.9c-0.2-1-0.1-1.9,0.3-2.6s0.9-1.4,1.5-2s1.4-1.2,2.2-1.7c0.8-0.5,1.5-1.1,2.2-1.7c0.7-0.6,1.3-1.3,1.8-2.1 s0.7-1.7,0.7-2.7c0-1.2-0.4-2.2-1.2-2.9c-0.8-0.7-1.9-1.1-3.3-1.1c-1.1,0-2,0.1-2.7,0.3c-0.7,0.2-1.3,0.5-1.9,0.7 c-0.5,0.3-1,0.5-1.4,0.7c-0.4,0.2-0.8,0.3-1.2,0.3c-0.9,0-1.5-0.4-2-1.1L221.2,52.4z M226.9,88c0-0.7,0.1-1.4,0.4-2 c0.3-0.6,0.7-1.2,1.1-1.7c0.5-0.5,1-0.8,1.7-1.1c0.7-0.3,1.4-0.4,2.1-0.4c0.8,0,1.5,0.1,2.1,0.4c0.7,0.3,1.2,0.6,1.7,1.1 c0.5,0.5,0.9,1,1.1,1.7c0.3,0.6,0.4,1.3,0.4,2s-0.1,1.4-0.4,2.1c-0.3,0.6-0.7,1.2-1.1,1.7c-0.5,0.5-1.1,0.8-1.7,1.1 c-0.7,0.3-1.4,0.4-2.1,0.4c-0.8,0-1.5-0.1-2.1-0.4c-0.7-0.3-1.2-0.6-1.7-1.1c-0.5-0.5-0.9-1-1.1-1.7S226.9,88.7,226.9,88z"/>
	</g>
</svg>