<svg enable-background="new 0 0 127 92.33" viewBox="0 0 127 92.33" xmlns="http://www.w3.org/2000/svg"><path d="m119.71 5.32h-107.1c-4.03 0-7.29 3.27-7.29 7.29v72.43c0 4.03 3.26 7.29 7.29 7.29h107.1c4.03 0 7.29-3.26 7.29-7.29v-72.43c0-4.03-3.26-7.29-7.29-7.29m-53.55 29.04c7.98 0 14.46 6.47 14.46 14.46s-6.47 14.46-14.46 14.46-14.46-6.47-14.46-14.46 6.47-14.46 14.46-14.46m-52.53 17.83v-6.73zm22.48 26.59v-2.75h-13.88 13.88v-2.75 2.75h73.98-73.98zm79.56-25.88c-2.25 0-4.08-1.82-4.08-4.08s1.83-4.08 4.08-4.08 4.08 1.83 4.08 4.08-1.83 4.08-4.08 4.08" fill="#e3efd1"/><path d="m111.16 40.24c-2.25 0-4.08 1.83-4.08 4.08s1.83 4.08 4.08 4.08 4.08-1.83 4.08-4.08-1.83-4.08-4.08-4.08" fill="#fff"/><path d="m58.9 51.61 10.24-5.91c1.07-.61 1.07-2.15 0-2.77l-10.24-5.91c-1.07-.61-2.4.15-2.4 1.38v11.83c.01 1.23 1.34 2 2.4 1.38" fill="#f3f9f0"/><path d="m115.31 87.94h-107.31c-4.04 0-7.31-3.27-7.31-7.31v-72.63c0-4.04 3.27-7.31 7.31-7.31h107.31c4.03 0 7.31 3.27 7.31 7.31v72.63c-.01 4.04-3.28 7.31-7.31 7.31zm.03-43.62c0 2.26-1.83 4.09-4.08 4.09-2.26 0-4.09-1.83-4.09-4.09s1.83-4.09 4.09-4.09 4.08 1.83 4.08 4.09zm-106.32 3.37v-6.75m60.14 1.99-10.26-5.93c-1.07-.62-2.4.15-2.4 1.39v11.86c0 1.23 1.33 2 2.4 1.39l10.26-5.93c1.07-.62 1.07-2.16 0-2.78zm6.98 1.39c0 8.01-6.49 14.5-14.49 14.5s-14.49-6.49-14.49-14.5 6.49-14.5 14.49-14.5 14.49 6.49 14.49 14.5zm-58.51 27.27h88.04m-74.12-2.76v5.52" style="fill:none;stroke:#12385e;stroke-width:1.382;stroke-linecap:round;stroke-linejoin:round;stroke-miterlimit:10"/><path d="m82.87 44.82c0 10.23-8.3 18.53-18.53 18.53s-18.53-8.3-18.53-18.53 8.29-18.53 18.53-18.53 18.53 8.29 18.53 18.53" fill="#8dc63f"/><path d="m59.11 44.82v-5.36c0-.45.49-.74.88-.51l4.64 2.68 4.64 2.68c.39.23.39.79 0 1.02l-4.64 2.68-4.63 2.68c-.39.23-.88-.06-.88-.51v-5.36z" fill="#fff"/></svg>