<svg enable-background="new 0 0 142.42 82.42" viewBox="0 0 142.42 82.42" xmlns="http://www.w3.org/2000/svg"><path d="m142.15 44.69-6.13 5.71c-.18.16-.27.38-.27.62v27.59c0 2.11-1.71 3.82-3.82 3.82h-103.45c-2.11 0-3.82-1.71-3.82-3.82v-69.07c0-2.11 1.71-3.82 3.82-3.82h103.44c2.11 0 3.82 1.71 3.82 3.82v27.59c0 .24.1.46.27.62l6.13 5.71c.37.33.37.9.01 1.23" fill="#cae7f5"/><path d="m45.18 39.12c0 11.57-9.09 21.01-20.52 21.57v-43.14c11.43.56 20.52 10.01 20.52 21.57" fill="#a0c4e8"/><path d="m43.19 39.12c0 11.93-9.67 21.6-21.6 21.6-11.92 0-21.59-9.67-21.59-21.6s9.67-21.6 21.6-21.6c11.92.01 21.59 9.68 21.59 21.6" fill="#0a93d2"/><path d="m17.56 36.77v-4.13c0-.35.38-.57.68-.39l3.58 2.07 3.58 2.07c.3.18.3.61 0 .79l-3.58 2.07-3.58 2.07c-.3.17-.68-.04-.68-.39z" fill="#fff"/><path d="m23.52 78.24c-2.53 0-4.59-2.06-4.59-4.59v-9.49c0-.43.35-.77.77-.77s.77.34.77.77v9.49c0 1.68 1.37 3.05 3.05 3.05h103.44c1.68 0 3.05-1.37 3.05-3.05v-27.58c0-.45.19-.88.52-1.18l6.2-5.76-6.2-5.76c-.33-.31-.52-.74-.52-1.18v-27.6c0-1.68-1.37-3.05-3.05-3.05h-103.44c-1.68 0-3.05 1.37-3.05 3.05v9.49c0 .43-.35.77-.77.77-.43 0-.77-.34-.77-.77v-9.49c0-2.53 2.06-4.59 4.59-4.59h103.44c2.53 0 4.59 2.06 4.59 4.59v27.62l6.16 5.73c.33.3.52.74.52 1.18 0 .45-.19.88-.52 1.18l-6.16 5.73v27.62c0 2.53-2.06 4.59-4.59 4.59z" fill="#12385e"/></svg>