<svg xmlns="http://www.w3.org/2000/svg" width="49.95" height="63.416" viewBox="0 0 49.95 63.416"><defs><style>.a{fill:#0e93d2;stroke:rgba(0,0,0,0);stroke-miterlimit:10;}.b{font-size:18px;font-family:ZeitungPro-Extrabold, Zeitung Pro;font-weight:800;}</style></defs><g transform="translate(0.5 0.5)"><path class="a" d="M-1591.61-595.057a1.441,1.441,0,0,1-1.44-1.44,1.434,1.434,0,0,1,.96-1.351v-8.515a1.44,1.44,0,0,1,1.441-1.44,1.438,1.438,0,0,1,1.439,1.44v8.426h6.718v-15.145a1.44,1.44,0,0,1,1.44-1.44,1.441,1.441,0,0,1,1.44,1.44v15.145h7.677v-27.622a1.44,1.44,0,0,1,1.441-1.44,1.439,1.439,0,0,1,1.439,1.44v27.622h23.515a1.439,1.439,0,0,1,1.439,1.44,1.439,1.439,0,0,1-1.439,1.44Zm29.683-16.89,9.067-9.068,3.125,3.126-5.943,5.943,5.943,5.941-3.125,3.125Z" transform="translate(1593.05 626.999)"/><text class="b" transform="translate(5.252 57.916)"><tspan x="0" y="0">DTP</tspan></text></g></svg>