<svg xmlns="http://www.w3.org/2000/svg" width="85" height="64.12" viewBox="0 0 85 64.12"><defs><style>.a{fill:#0e93d2;stroke:rgba(0,0,0,0);stroke-miterlimit:10;}.b{font-size:18px;font-family:ZeitungPro-Extrabold, Zeitung Pro;font-weight:800;}</style></defs><g transform="translate(0 0.707)"><path class="a" d="M-899.262-635.3l8.7-8.7,2.932,2.931-5.77,5.769,5.77,5.769-2.932,2.93Zm18.056.371a3.779,3.779,0,0,1,3.779-3.779,3.779,3.779,0,0,1,3.779,3.779,3.779,3.779,0,0,1-3.779,3.779A3.779,3.779,0,0,1-881.206-634.928Zm-31.793,0a3.779,3.779,0,0,1,3.779-3.779,3.78,3.78,0,0,1,3.778,3.779,3.78,3.78,0,0,1-3.778,3.779A3.779,3.779,0,0,1-913-634.928Z" transform="translate(935.363 644)"/><text class="b" transform="translate(0 58.413)"><tspan x="0" y="0">Insure ++</tspan></text></g></svg>