<svg xmlns="http://www.w3.org/2000/svg" width="65.023" height="79.021" viewBox="0 0 65.023 79.021"><defs><style>.a,.c{fill:none;stroke:#0e93d2;}.a{stroke-miterlimit:10;stroke-width:4.145px;}.b{fill:#0e93d2;}.c{stroke-linejoin:round;stroke-width:3.613px;}.d{font-size:18px;font-family:ZeitungPro-Extrabold, Zeitung Pro;font-weight:800;}</style></defs><g transform="translate(0 1.806)"><g transform="translate(-0.029 -1.806)"><path class="a" d="M50.516,18.378l7.253,7.267L50.5,32.9"/><path class="b" d="M20.152,30.023l1.869-2.748a6.2,6.2,0,0,0,4.389,1.81c1.19,0,1.93-.409,1.93-1.085,0-1.806-7.735-.316-7.731-5.587,0-2.3,1.933-4.349,5.441-4.345a8.344,8.344,0,0,1,5.559,1.912l-1.932,2.646a6.335,6.335,0,0,0-4-1.44c-1.025,0-1.477.347-1.477.942,0,1.682,7.734.416,7.729,5.5,0,2.75-2.035,4.574-5.707,4.57a8.453,8.453,0,0,1-6.071-2.18"/><path class="b" d="M38.108,24.356a1.847,1.847,0,0,0-2.033,1.538l4.083,0c-.081-.7-.594-1.54-2.05-1.541M32.854,27a5.1,5.1,0,0,1,5.257-5.186c2.933,0,5.065,2.159,5.063,5.524v.719l-7.058-.007a2.323,2.323,0,0,0,2.48,1.623,4.123,4.123,0,0,0,2.422-.839l1.372,2.073a6.454,6.454,0,0,1-4.145,1.309A5.055,5.055,0,0,1,32.854,27"/><path class="c" d="M47.7,36.974,37.642,47.015A8.341,8.341,0,0,1,25.882,47l-8.319-8.333m.03-26.132,8.328-8.313a8.339,8.339,0,0,1,11.759.011L47.666,14.42"/><path class="b" d="M10.082,25.794a1.836,1.836,0,1,1-1.834-1.838,1.835,1.835,0,0,1,1.834,1.838"/><path class="b" d="M13.492,32.749a1.837,1.837,0,1,1-1.835-1.838,1.836,1.836,0,0,1,1.835,1.838"/><path class="b" d="M13.19,18.844a1.836,1.836,0,1,1-1.835-1.837,1.836,1.836,0,0,1,1.835,1.837"/></g><text class="d" transform="matrix(1, 0.001, -0.001, 1, 0.005, 72.156)"><tspan x="0" y="0">Selenic</tspan></text></g></svg>