<svg xmlns="http://www.w3.org/2000/svg" xmlns:xlink="http://www.w3.org/1999/xlink" width="1640" height="620" viewBox="0 0 1640 620"><defs><style>.a{fill:url(#a);}.b{fill:#004877;}.c{fill:none;stroke:#90999d;}</style><linearGradient id="a" x1="0.222" y1="1.252" x2="1" y2="1.238" gradientUnits="objectBoundingBox"><stop offset="0" stop-color="#1362a3"/><stop offset="1" stop-color="#0e93d2"/></linearGradient></defs><g transform="translate(-140 -464)"><g transform="translate(275 464)"><path class="a" d="M167.632,492.772,214.149,620l197-1.025-46.141-126.2Z"/><path class="a" d="M363.543,488.772,308.57,338.414H111.2L166.17,488.772Z"/><path class="a" d="M307.108,334.414,252.064,183.861H54.69l55.044,150.553Z"/><path class="a" d="M99.482,42.774,0,34.276,53.228,179.861H250.6L197,33.251Z"/><path class="b" d="M541,0,395,40h30.534L374.4,179.861H571.772L622.907,40H654Z"/><path class="b" d="M515.266,334.414,570.31,183.861H372.936L317.892,334.414Z"/><path class="b" d="M458.83,488.773,513.8,338.415H316.43L261.456,488.773Z"/><path class="b" d="M259.994,492.772l-46.141,126.2,197,1.026,46.516-127.228Z"/></g><line class="c" x2="1640" transform="translate(140 644)"/><line class="c" x2="1396" transform="translate(384 798)"/><line class="c" x2="1021" transform="translate(140 953)"/></g></svg>