<svg xmlns="http://www.w3.org/2000/svg" width="54.012" height="54.01" viewBox="0 0 54.012 54.01"><defs><style>.a{fill:#0e93d2;stroke:rgba(0,0,0,0);stroke-miterlimit:10;}</style></defs><path class="a" d="M-188-608.7l26.3-26.3,26.3,26.3-26.3,26.3Zm3.206,0,23.092,23.093,23.094-23.093L-161.7-631.8Zm23.093,5.348-5.293,5.294-1.444-1.444,6.015-6.016a1.022,1.022,0,0,1,1.444,0l6.015,6.016-1.444,1.444Zm2.55-5.11,7.1-7.1,2.386,2.386-4.715,4.714,4.715,4.714-2.386,2.385Zm-13.175,4.968,5.293-5.293-5.293-5.295,1.443-1.443,6.015,6.015a1.022,1.022,0,0,1,0,1.444l-6.015,6.015Zm9.9-8.527-6.014-6.014,1.442-1.445,5.294,5.294,5.294-5.294,1.443,1.445-6.015,6.014a1.027,1.027,0,0,1-.722.3A1.025,1.025,0,0,1-162.423-612.024Z" transform="translate(188.707 635.708)"/></svg>