<svg viewBox="0 0 111 103.9" xmlns="http://www.w3.org/2000/svg"><path d="M104.19 44.75a5.25 5.25 0 00-5.25-5.25H88.48v46.99H24.85V39.5H14.39a5.25 5.25 0 00-5.25 5.25v53.93h95.05V77.36z" fill="#e3efd1"/><path d="M84.7 7.11V36.2h10.46c.84 0 1.64.2 2.34.55V7.1c0-3.53-2.87-6.4-6.4-6.4-3.54.01-6.4 2.88-6.4 6.41" fill="#c9d5dd"/><path d="M100.41 75.09h3.49c-1.29 0-2.49-.38-3.49-1.04z" fill="#e5e4de"/><path d="M60.74 96.21c0 1.46-1.18 2.64-2.64 2.64H47.66c-1.46 0-2.63-1.18-2.63-2.64v-.83H.71v1.81c0 3.32 2.69 6.01 6.01 6.01h92.32c3.32 0 6.01-2.69 6.01-6.01v-1.81H60.74z" fill="#b2c4d0"/><path d="M31.41 52.74h45.64m-45.64 7.11h45.64m-45.64 7.1h45.64" fill="none" stroke="#12385e" stroke-width="1.322" stroke-linecap="round" stroke-linejoin="round" stroke-miterlimit="10"/><path d="M21.06 13.49v69.7h63.65V7.09m0-6.4H33.86c-7.07 0-12.8 5.73-12.8 12.8m76.45-6.4a6.4 6.4 0 10-12.8 0m0-6.4h6.4m6.4 36.05V7.09m2.91 66.97c1 .66 2.2 1.04 3.49 1.04 3.54 0 6.4-2.86 6.4-6.4m0-.01V18.67h-12.8m6.4 56.43h-3.49M84.71 36.19h10.47c.84 0 1.64.2 2.34.55 1.73.86 2.91 2.64 2.91 4.7v53.95H5.34V41.44c0-2.9 2.36-5.25 5.25-5.25h10.47m84.01 59.2v1.81a6.02 6.02 0 01-6.02 6.02H6.71A6.02 6.02 0 01.69 97.2v-1.81h44.33v.84c0 1.46 1.18 2.64 2.64 2.64h10.45c1.46 0 2.64-1.18 2.64-2.64v-.84z" fill="none" stroke="#12385e" stroke-width="1.382" stroke-linecap="round" stroke-linejoin="round" stroke-miterlimit="10"/><path d="M74.37 25.73c0 1.88-1.54 3.42-3.42 3.42H37.52c-1.88 0-3.42-1.54-3.42-3.42v-7.92c0-1.88 1.54-3.42 3.42-3.42h33.43c1.88 0 3.42 1.54 3.42 3.42z" fill="#8dc63f"/><path d="M31.41 45.69h45.64m-45.64-7.13h45.64" fill="none" stroke="#12385e" stroke-width="1.322" stroke-linecap="round" stroke-linejoin="round" stroke-miterlimit="10"/></svg>