<svg viewBox="0 0 108.18 101.26" xmlns="http://www.w3.org/2000/svg"><path d="M101.54 43.61a5.1 5.1 0 00-5.12-5.11H86.23v45.8H24.22V38.5h-10.2c-2.82 0-5.11 2.29-5.11 5.11v52.56h92.63V75.39z" fill="#e0e2e4"/><path d="M82.55 6.93v28.35h10.19c.82 0 1.59.19 2.28.53V6.92A6.23 6.23 0 0088.79.69c-3.45 0-6.24 2.8-6.24 6.24" fill="#c9d5dd"/><path d="M97.85 73.18h3.4c-1.25 0-2.42-.37-3.4-1.01z" fill="#e5e4de"/><path d="M59.2 93.76a2.57 2.57 0 01-2.57 2.57H46.45a2.57 2.57 0 01-2.57-2.57v-.81H.69v1.76c0 3.24 2.63 5.86 5.86 5.86h89.97c3.24 0 5.86-2.62 5.86-5.86v-1.76H59.2z" fill="#b2c4d0"/><path d="M30.63 51.42h44.45m-44.45 6.91h44.45m-44.45 6.9h44.45" fill="none" stroke="#12385e" stroke-width="1.322" stroke-linecap="round" stroke-linejoin="round" stroke-miterlimit="10"/><path d="M20.53 13.17v67.91h62.02V6.93m0-6.24H33c-6.89 0-12.47 5.59-12.47 12.47m74.49-6.24A6.23 6.23 0 0088.79.69c-3.45 0-6.24 2.79-6.24 6.23m0-6.23h6.24m6.23 35.12V6.92m2.83 65.25a6.12 6.12 0 003.4 1.01c3.44 0 6.23-2.79 6.23-6.24m.01 0V18.21H95.02m6.23 54.97h-3.4M82.54 35.27h10.2a5.1 5.1 0 015.11 5.11v52.56H5.22V40.39c0-2.83 2.29-5.11 5.11-5.11h10.2m81.86 57.67v1.76c0 3.24-2.62 5.86-5.86 5.86H6.55c-3.24 0-5.86-2.62-5.86-5.86v-1.76h43.19v.82a2.57 2.57 0 002.57 2.57h10.18a2.57 2.57 0 002.57-2.57v-.82z" fill="none" stroke="#12385e" stroke-width="1.382" stroke-linecap="round" stroke-linejoin="round" stroke-miterlimit="10"/><path d="M72.48 25.07c0 1.83-1.5 3.33-3.33 3.33H36.56c-1.83 0-3.33-1.5-3.33-3.33v-7.72c0-1.83 1.5-3.33 3.33-3.33h32.58c1.83 0 3.33 1.5 3.33 3.33v7.72z" fill="#7c878d"/><path d="M30.63 44.51h44.45M30.63 37.6h44.45" fill="none" stroke="#12385e" stroke-width="1.322" stroke-linecap="round" stroke-linejoin="round" stroke-miterlimit="10"/></svg>