<svg viewBox="0 0 50 50" xmlns="http://www.w3.org/2000/svg"><path d="M25 0C11.19 0 0 11.19 0 25s11.19 25 25 25 25-11.19 25-25S38.81 0 25 0" fill="#0e93d2"/><path d="M38.81 23.9c0-6.84-6.18-12.39-13.81-12.39S11.19 17.06 11.19 23.9c0 3.25 1.4 6.19 3.67 8.4v6.19l4.96-3.1c1.6.58 3.34.91 5.17.91 7.64 0 13.82-5.55 13.82-12.4" fill="#fff"/><path d="M20.64 25.66c1.01 0 1.84-.82 1.84-1.84 0-1.01-.82-1.84-1.84-1.84s-1.84.82-1.84 1.84c.01 1.02.83 1.84 1.84 1.84m5 0c1.01 0 1.84-.82 1.84-1.84 0-1.01-.82-1.84-1.84-1.84s-1.84.82-1.84 1.84c.01 1.02.83 1.84 1.84 1.84m5 0c1.01 0 1.84-.82 1.84-1.84 0-1.01-.82-1.84-1.84-1.84s-1.84.82-1.84 1.84c.01 1.02.83 1.84 1.84 1.84" fill="#0e93d2"/></svg>