<svg enable-background="new 0 0 50 50" viewBox="0 0 50 50" xmlns="http://www.w3.org/2000/svg"><path d="m25 0c-13.81 0-25 11.19-25 25s11.19 25 25 25 25-11.19 25-25-11.19-25-25-25" fill="#0e93d2"/><path d="m38.81 23.9c0-6.84-6.18-12.39-13.81-12.39s-13.81 5.55-13.81 12.39c0 3.25 1.4 6.19 3.67 8.4v6.19l4.96-3.1c1.6.58 3.34.91 5.17.91 7.64 0 13.82-5.55 13.82-12.4" fill="#fff"/><g fill="#0e93d2"><path d="m20.64 25.66c1.01 0 1.84-.82 1.84-1.84 0-1.01-.82-1.84-1.84-1.84s-1.84.82-1.84 1.84c.01 1.02.83 1.84 1.84 1.84"/><path d="m25.64 25.66c1.01 0 1.84-.82 1.84-1.84 0-1.01-.82-1.84-1.84-1.84s-1.84.82-1.84 1.84c.01 1.02.83 1.84 1.84 1.84"/><path d="m30.64 25.66c1.01 0 1.84-.82 1.84-1.84 0-1.01-.82-1.84-1.84-1.84s-1.84.82-1.84 1.84c.01 1.02.83 1.84 1.84 1.84"/></g></svg>