<svg enable-background="new 0 0 49.5 49.5" viewBox="0 0 49.5 49.5" xmlns="http://www.w3.org/2000/svg"><g fill="#0e93d2"><path d="m24.75 49.5c-13.65 0-24.75-11.1-24.75-24.75s11.1-24.75 24.75-24.75c4.34 0 8.61 1.14 12.35 3.3.51.29.68.94.39 1.45-.19.33-.54.53-.92.53-.18 0-.37-.05-.53-.14-3.42-1.97-7.32-3.02-11.29-3.02-12.48 0-22.63 10.15-22.63 22.63s10.15 22.63 22.63 22.63 22.63-10.15 22.63-22.63c0-1.01-.07-2.03-.2-3.02-.23-1.75-.67-3.47-1.31-5.11-.42-1.08-.93-2.15-1.51-3.16-.14-.25-.18-.53-.11-.81.07-.27.25-.5.49-.64.16-.09.34-.14.53-.14.38 0 .73.2.92.53.64 1.1 1.19 2.27 1.65 3.45.69 1.8 1.17 3.68 1.43 5.6.15 1.09.22 2.2.22 3.3.01 13.65-11.09 24.75-24.74 24.75"/><path d="m21.59 33.71c-.28 0-.55-.11-.75-.31l-6.32-6.32c-.41-.41-.41-1.09 0-1.5.2-.2.47-.31.75-.31s.55.11.75.31l5.2 5.2c.1.1.23.15.37.15s.27-.05.37-.15l11.52-11.52c.2-.2.47-.31.75-.31s.55.11.75.31c.41.41.41 1.09 0 1.5l-12.64 12.64c-.2.2-.47.31-.75.31"/></g></svg>