<svg viewBox="0 0 49.5 49.5" xmlns="http://www.w3.org/2000/svg"><g fill="#0e93d2"><path d="M24.75 49.5C11.1 49.5 0 38.4 0 24.75S11.1 0 24.75 0c4.34 0 8.61 1.14 12.35 3.3a1.061 1.061 0 11-1.06 1.84 22.644 22.644 0 00-11.29-3.02c-12.48 0-22.63 10.15-22.63 22.63s10.15 22.63 22.63 22.63 22.63-10.15 22.63-22.63c0-1.01-.07-2.03-.2-3.02-.23-1.75-.67-3.47-1.31-5.11-.42-1.08-.93-2.15-1.51-3.16a1.09 1.09 0 01-.11-.81 1.052 1.052 0 011.02-.78c.38 0 .73.2.92.53.64 1.1 1.19 2.27 1.65 3.45.69 1.8 1.17 3.68 1.43 5.6.15 1.09.22 2.2.22 3.3C49.5 38.4 38.4 49.5 24.75 49.5"/><path d="M21.59 33.71c-.28 0-.55-.11-.75-.31l-6.32-6.32c-.41-.41-.41-1.09 0-1.5a1.06 1.06 0 011.5 0l5.2 5.2c.1.1.23.15.37.15s.27-.05.37-.15l11.52-11.52a1.06 1.06 0 011.5 1.5L22.34 33.4c-.2.2-.47.31-.75.31"/></g></svg>