<svg viewBox="0 0 60.55 60.55" xmlns="http://www.w3.org/2000/svg"><g fill="#fff"><path d="M39.76 24.09h-3.49v4.45h-4.45v3.48h4.45v4.45h3.49v-4.45h4.44v-3.48h-4.44zM20.8 36.47h3.48v-4.45h4.45v-3.48h-4.45v-4.45H20.8v4.45h-4.45v3.48h4.45zM0 30.28l9.69 9.69 3.26-3.26-6.44-6.43 6.44-6.44-3.26-3.26zm50.86-9.7l-3.26 3.26 6.44 6.44-6.44 6.43 3.26 3.26 9.69-9.69zM30.28 0l-9.7 9.69 3.26 3.26 6.44-6.44"/><path d="M30.28 6.51l6.44 6.44 3.25-3.26L30.28 0m0 60.55l9.69-9.69-3.25-3.26-6.44 6.44-6.44-6.44-3.26 3.26z"/></g></svg>