<svg viewBox="0 0 60.32 56.93" xmlns="http://www.w3.org/2000/svg"><path d="M49 20.4l8.06 8.07L49 36.53" fill="none" stroke="#0e93d2" stroke-miterlimit="10" stroke-width="4.606"/><path d="M15.27 33.37l2.07-3.05a6.914 6.914 0 004.88 2.01c1.32 0 2.14-.46 2.14-1.21 0-2.01-8.59-.34-8.59-6.2 0-2.55 2.14-4.83 6.04-4.83 2.44 0 4.56.73 6.18 2.12l-2.14 2.94c-1.28-1.07-2.94-1.6-4.44-1.6-1.14 0-1.64.39-1.64 1.05 0 1.87 8.59.46 8.59 6.11 0 3.05-2.26 5.08-6.34 5.08-3.08 0-5.22-.98-6.75-2.42m19.95-6.31c-1.53 0-2.12.91-2.26 1.71h4.54c-.09-.78-.66-1.71-2.28-1.71M29.38 30c0-3.19 2.39-5.77 5.84-5.77 3.26 0 5.63 2.39 5.63 6.13v.8h-7.84c.25.98 1.16 1.8 2.76 1.8.78 0 2.05-.34 2.69-.94l1.53 2.3c-1.09.98-2.92 1.46-4.61 1.46-3.4.01-6-2.2-6-5.78" fill="#0e93d2"/><path d="M45.89 41.07L34.72 52.23c-3.59 3.59-9.47 3.59-13.07 0l-9.25-9.25m.01-29.03l9.24-9.24c3.59-3.59 9.47-3.59 13.07 0l11.11 11.3" fill="none" stroke="#0e93d2" stroke-linejoin="round" stroke-miterlimit="10" stroke-width="4.014"/><path d="M4.08 28.68c0 1.13-.91 2.04-2.04 2.04S0 29.81 0 28.68s.91-2.04 2.04-2.04 2.04.92 2.04 2.04m3.8 7.73c0 1.13-.91 2.04-2.04 2.04s-2.04-.91-2.04-2.04.91-2.04 2.04-2.04c1.12 0 2.04.91 2.04 2.04m-.35-15.45c0 1.13-.91 2.04-2.04 2.04s-2.04-.91-2.04-2.04.91-2.04 2.04-2.04c1.12 0 2.04.91 2.04 2.04" fill="#0e93d2"/></svg>