<svg viewBox="0 0 60.55 60.55" xmlns="http://www.w3.org/2000/svg"><path d="M9.7 20.58L0 30.28l9.7 9.69 3.25-3.25-6.44-6.44 6.44-6.44zm41.16 0l-3.26 3.26 6.44 6.44-6.44 6.44 3.26 3.25 9.69-9.69zM20.58 9.69l3.26 3.26 6.44-6.44 6.44 6.44 3.25-3.26L30.28 0zm9.7 44.35l-6.44-6.44-3.26 3.26 9.7 9.69 9.69-9.69-3.25-3.26zM25.5 25.43c-2.41 2.19-3.63 4.37-3.61 6.48.02 2.12 1.3 3.31 1.45 3.44.31.27.7.41 1.08.41.45 0 .91-.19 1.23-.56.6-.68.53-1.71-.15-2.31 0 0-.33-.38-.34-1.01-.01-1.1.89-2.53 2.54-4.03 3.63-3.3 5.24-5.95 4.95-8.11-.22-1.59-1.35-2.23-1.58-2.35a1.63 1.63 0 00-2.19.73c-.37.74-.13 1.62.53 2.08.01.16 0 1.68-3.91 5.23m5.92 8.72c-2.41 2.19-3.63 4.37-3.61 6.48.02 2.12 1.3 3.31 1.45 3.44.31.27.7.41 1.08.41.46 0 .91-.19 1.23-.56.6-.68.53-1.71-.15-2.31 0 0-.33-.38-.34-1.01-.01-1.1.89-2.53 2.54-4.03 3.63-3.3 5.24-5.95 4.95-8.11-.22-1.59-1.35-2.23-1.58-2.35a1.63 1.63 0 00-2.19.73c-.37.74-.13 1.62.53 2.07.01.26-.1 1.78-3.91 5.24" fill="#fff"/></svg>