<svg enable-background="new 0 0 60.55 60.55" viewBox="0 0 60.55 60.55" xmlns="http://www.w3.org/2000/svg"><g fill="#fff"><path d="m39.76 24.09h-3.49v4.45h-4.45v3.48h4.45v4.45h3.49v-4.45h4.44v-3.48h-4.44z"/><path d="m20.8 36.47h3.48v-4.45h4.45v-3.48h-4.45v-4.45h-3.48v4.45h-4.45v3.48h4.45z"/><path d="m0 30.28 9.69 9.69 3.26-3.26-6.44-6.43 6.44-6.44-3.26-3.26z"/><path d="m50.86 20.58-3.26 3.26 6.44 6.44-6.44 6.43 3.26 3.26 9.69-9.69z"/><path d="m30.28 0-9.7 9.69 3.26 3.26 6.44-6.44"/><path d="m30.28 6.51 6.44 6.44 3.25-3.26-9.69-9.69"/><path d="m30.28 60.55 9.69-9.69-3.25-3.26-6.44 6.44-6.44-6.44-3.26 3.26z"/></g></svg>