<svg enable-background="new 0 0 60.55 60.55" viewBox="0 0 60.55 60.55" xmlns="http://www.w3.org/2000/svg"><g fill="#fff"><path d="m34.8 29.69c0-2.33-1.89-4.21-4.21-4.21-2.33 0-4.21 1.89-4.21 4.21 0 2.33 1.89 4.21 4.21 4.21s4.21-1.89 4.21-4.21"/><path d="m9.7 20.58-9.7 9.7 9.7 9.69 3.25-3.26-6.44-6.43 6.44-6.44z"/><path d="m50.86 20.58-3.26 3.26 6.44 6.44-6.44 6.43 3.26 3.26 9.69-9.69z"/><path d="m20.58 9.69 3.26 3.26 6.44-6.44 6.44 6.44 3.25-3.26-9.69-9.69z"/><path d="m30.28 54.04-6.44-6.44-3.26 3.26 9.7 9.69 9.69-9.69-3.25-3.26z"/></g></svg>