<svg enable-background="new 0 0 47.51 46.61" viewBox="0 0 47.51 46.61" xmlns="http://www.w3.org/2000/svg"><g fill="#fff"><path d="m18.52 4.2c0-2.32 1.88-4.2 4.2-4.2s4.2 1.88 4.2 4.2-1.88 4.2-4.2 4.2c-2.31.01-4.2-1.88-4.2-4.2"/><path d="m18.52 42.41c0-2.32 1.88-4.2 4.2-4.2s4.2 1.88 4.2 4.2-1.88 4.2-4.2 4.2c-2.31 0-4.2-1.88-4.2-4.2"/><path d="m0 23.3c0-2.32 1.88-4.2 4.2-4.2s4.2 1.88 4.2 4.2-1.88 4.2-4.2 4.2c-2.32.01-4.2-1.87-4.2-4.2"/><path d="m44.25 34-9.67-9.67 9.67-9.68 3.26 3.26-6.42 6.42 6.42 6.42z"/></g></svg>