<svg viewBox="0 0 58.44 58.44" xmlns="http://www.w3.org/2000/svg"><g fill="#fff"><path d="M27.77 42.17c.71-.71 1.87-.71 2.58 0s.71 1.87 0 2.58-1.87.71-2.58 0-.71-1.87 0-2.58m7.33-1.13l-5.88-5.88-5.88 5.88-1.6-1.6 6.68-6.68c.44-.44 1.16-.44 1.6 0l6.68 6.68zM16.28 27.67c.71.71.71 1.87 0 2.58s-1.87.71-2.58 0-.71-1.87 0-2.58 1.87-.71 2.58 0m2.74 8.94l-1.6-1.6 5.88-5.88-5.88-5.88 1.6-1.6 6.68 6.68c.44.44.44 1.16 0 1.6zm11.65-20.5c-.71.71-1.87.71-2.58 0s-.71-1.87 0-2.58 1.87-.71 2.58 0 .71 1.87 0 2.58m-1.45 9.75c-.29 0-.58-.11-.8-.33l-6.68-6.68 1.6-1.6 5.88 5.88 5.88-5.88 1.6 1.6-6.68 6.68c-.22.22-.51.33-.8.33"/><path d="M29.22 0L0 29.22l29.22 29.22 29.22-29.22z"/><path d="M3.565 29.22L29.226 3.56l25.66 25.66-25.66 25.66z"/><path d="M39.94 37.37l-7.89-7.89 7.89-7.88 2.65 2.65-5.24 5.23 5.24 5.24z"/></g></svg>