<svg viewBox="0 0 166.53 166.52" xmlns="http://www.w3.org/2000/svg"><path d="M109.33 66.24h-9.58v12.23H87.52v9.58h12.23v12.23h9.58V88.05h12.23v-9.58h-12.23zM57.2 100.28h9.57V88.05h12.24v-9.58H66.77V66.24H57.2v12.23H44.96v9.58H57.2zM26.66 56.6L0 83.26l26.66 26.66 8.96-8.95-17.71-17.71 17.71-17.7zm139.87 26.66L139.86 56.6l-8.95 8.96 17.7 17.7-17.7 17.71 8.95 8.95zM83.26 17.91l17.71 17.71 8.95-8.96L83.26 0 56.6 26.66l8.96 8.96zm0 148.61l26.66-26.66-8.95-8.95-17.71 17.7-17.7-17.7-8.96 8.95z" fill="#d9e6ee"/></svg>