<svg version="1.1" id="rotated-square" xmlns="http://www.w3.org/2000/svg" x="0" y="0" viewBox="0 0 469.2 180.4" xml:space="preserve"><style>.corner{fill:none;stroke:#a2a9ad}</style><path class="corner left" d="M178.9 70.1H26.1v100.4"/><path class="corner right" d="M290.2 70.1h152.9v100.4"/><path fill="none" stroke="#fff" stroke-width="6" stroke-miterlimit="10" d="M177.195 70.608l56.568-56.568 56.568 56.568-56.568 56.568z"/><path d="M221.2 52.4c.8-.6 1.6-1.2 2.5-1.8s1.8-1 2.9-1.5c1-.4 2.1-.7 3.3-1 1.2-.2 2.4-.4 3.8-.4 1.9 0 3.6.3 5.2.8 1.5.5 2.8 1.2 3.9 2.2 1.1.9 1.9 2.1 2.5 3.4.6 1.3.9 2.8.9 4.4 0 1.5-.2 2.9-.6 4s-1 2.1-1.6 2.9c-.7.8-1.4 1.6-2.2 2.2-.8.6-1.5 1.2-2.2 1.7-.7.5-1.3 1-1.8 1.5s-.9 1.1-1 1.7l-.9 4.3h-6.5l-.7-4.9c-.2-1-.1-1.9.3-2.6s.9-1.4 1.5-2 1.4-1.2 2.2-1.7c.8-.5 1.5-1.1 2.2-1.7.7-.6 1.3-1.3 1.8-2.1s.7-1.7.7-2.7c0-1.2-.4-2.2-1.2-2.9-.8-.7-1.9-1.1-3.3-1.1-1.1 0-2 .1-2.7.3-.7.2-1.3.5-1.9.7-.5.3-1 .5-1.4.7-.4.2-.8.3-1.2.3-.9 0-1.5-.4-2-1.1l-2.5-3.6zm5.7 35.6c0-.7.1-1.4.4-2 .3-.6.7-1.2 1.1-1.7.5-.5 1-.8 1.7-1.1.7-.3 1.4-.4 2.1-.4.8 0 1.5.1 2.1.4.7.3 1.2.6 1.7 1.1.5.5.9 1 1.1 1.7.3.6.4 1.3.4 2s-.1 1.4-.4 2.1c-.3.6-.7 1.2-1.1 1.7-.5.5-1.1.8-1.7 1.1-.7.3-1.4.4-2.1.4-.8 0-1.5-.1-2.1-.4-.7-.3-1.2-.6-1.7-1.1-.5-.5-.9-1-1.1-1.7s-.4-1.4-.4-2.1z" fill="#fff"/></svg>