<svg xmlns="http://www.w3.org/2000/svg" viewBox="0 0 106.9 98.8" width="106" height="98"><path d="M78.7 70.5c-3.5 0-6.4-2.3-7.2-5.5-2.6-1.2-4.3-3.8-4.3-6.8 0-4.2 3.4-7.5 7.5-7.5 3.5 0 6.4 2.3 7.2 5.5 2.6 1.2 4.3 3.8 4.3 6.8 0 4.1-3.3 7.5-7.5 7.5m24.1-46.3h-2.4v-3.8c0-2.3-1.9-4.1-4.1-4.1h-83c-2.3 0-4.1 1.9-4.1 4.1v66.3c0 2.3 1.9 4.1 4.1 4.1h2.4v3.8c0 2.3 1.9 4.1 4.1 4.1h82.9c2.3 0 4.1-1.9 4.1-4.1V28.4c.1-2.3-1.7-4.2-4-4.2" fill="#e0e2e4"/><path d="M78.9 55.4l-5.4 5.4-3.2-3.2m-3.2.5c0 4.2 3.4 7.5 7.5 7.5 4.2 0 7.5-3.4 7.5-7.5 0-4.2-3.4-7.5-7.5-7.5s-7.5 3.4-7.5 7.5zM.7 21.4h91.2M19.3 67h4.1m29.1 0h4.1m-20.7 0H40m12.5-14.5h4.1m-37.3 0h4.1m12.5 0H40M52.5 38h4.1m12.5 0h4.1m-37.3 0H40M69.1.7v14.5M23.5.7v14.5M9 83.6v4.1c0 2.3 1.9 4.1 4.1 4.1H96c2.3 0 4.1-1.9 4.1-4.1V21.4c0-2.3-1.9-4.1-4.1-4.1h-4.1m-4.2 66.3H4.8c-2.3 0-4.1-1.9-4.1-4.1V13.1C.7 10.8 2.5 9 4.8 9h82.9c2.3 0 4.1 1.9 4.1 4.1v66.3c.1 2.3-1.8 4.2-4.1 4.2z" fill="none" stroke="#12385e" stroke-width="1.382" stroke-linecap="round" stroke-linejoin="round" stroke-miterlimit="10"/><path d="M36.7 34.3h7.8v7.8h-7.8zm16.7 0h7.8v7.8h-7.8zm16.6 0h7.8v7.8H70zM20.5 49.1h7.8v7.8h-7.8zm16.6 0h7.8v7.8h-7.8zm16.6 0h7.8v7.8h-7.8zM20.5 63.4h7.8v7.8h-7.8zm16.6 0h7.8v7.8h-7.8zm16.6 0h7.8v7.8h-7.8z" fill="#fff"/><path d="M33.7 33.3h7.8v7.8h-7.8zm16.7 0h7.8v7.8h-7.8zm16.6 0h7.8v7.8H67zM17.5 48.1h7.8v7.8h-7.8zm16.6 0h7.8v7.8h-7.8zm16.6 0h7.8v7.8h-7.8zM17.5 62.4h7.8v7.8h-7.8zm16.6 0h7.8v7.8h-7.8zm16.6 0h7.8v7.8h-7.8z" fill="#7c878d"/></svg>