<svg viewBox="0 0 127.09 92.39" xmlns="http://www.w3.org/2000/svg"><path d="M119.79 5.32H12.62c-4.03 0-7.3 3.27-7.3 7.3V85.1c0 4.03 3.27 7.3 7.3 7.3h107.17c4.03 0 7.3-3.27 7.3-7.3V12.62c0-4.03-3.27-7.3-7.3-7.3M66.2 34.39c7.99 0 14.47 6.48 14.47 14.47S74.2 63.33 66.2 63.33c-7.99 0-14.47-6.48-14.47-14.47s6.48-14.47 14.47-14.47M13.64 52.22v-6.74zm22.5 26.61v-2.76h-13.9 13.89v-2.76 2.76h74.03-74.02zm79.61-25.89c-2.25 0-4.08-1.83-4.08-4.08s1.83-4.08 4.08-4.08 4.08 1.83 4.08 4.08-1.83 4.08-4.08 4.08" fill="#7b868c"/><path d="M111.24 40.27c-2.25 0-4.08 1.83-4.08 4.08s1.83 4.08 4.08 4.08 4.08-1.83 4.08-4.08-1.83-4.08-4.08-4.08" fill="#fff"/><path d="M58.94 51.65l10.25-5.92c1.07-.61 1.07-2.15 0-2.77l-10.25-5.92c-1.07-.61-2.4.15-2.4 1.39v11.84c.01 1.23 1.34 2 2.4 1.38" fill="#f3f9f0"/><path d="M115.33 87.94H8.06c-4.03 0-7.3-3.27-7.3-7.31V8.06C.76 4.02 4.03.75 8.06.75h107.28c4.03 0 7.3 3.27 7.3 7.31v72.58c0 4.03-3.27 7.3-7.31 7.3zm.04-43.59c0 2.26-1.83 4.08-4.08 4.08s-4.08-1.83-4.08-4.08c0-2.26 1.83-4.08 4.08-4.08s4.08 1.82 4.08 4.08zM9.08 47.72v-6.75m60.12 1.99l-10.26-5.93c-1.07-.62-2.4.15-2.4 1.39v11.85c0 1.23 1.33 2 2.4 1.39l10.26-5.93c1.07-.61 1.07-2.15 0-2.77zm6.98 1.39c0 8-6.48 14.49-14.48 14.49s-14.48-6.49-14.48-14.49S53.7 29.86 61.7 29.86c7.99 0 14.48 6.48 14.48 14.49zM17.69 71.6h88.01m-74.1-2.76v5.52" fill="none" stroke="#12385e" stroke-width="1.503" stroke-linecap="round" stroke-linejoin="round" stroke-miterlimit="10"/><path d="M82.93 44.85c0 10.24-8.3 18.54-18.54 18.54s-18.54-8.3-18.54-18.54 8.3-18.54 18.54-18.54 18.54 8.3 18.54 18.54" fill="#7c878d"/><path d="M59.15 44.85v-5.36c0-.45.49-.74.88-.51l4.65 2.68 4.65 2.68c.39.23.39.8 0 1.02l-4.65 2.68-4.65 2.68a.587.587 0 01-.88-.51z" fill="#fff"/></svg>