<svg viewBox="0 0 127 92.33" xmlns="http://www.w3.org/2000/svg"><path d="M119.71 5.32H12.61c-4.03 0-7.29 3.27-7.29 7.29v72.43c0 4.03 3.26 7.29 7.29 7.29h107.1c4.03 0 7.29-3.26 7.29-7.29V12.61c0-4.03-3.26-7.29-7.29-7.29M66.16 34.36c7.98 0 14.46 6.47 14.46 14.46s-6.47 14.46-14.46 14.46S51.7 56.81 51.7 48.82s6.47-14.46 14.46-14.46M13.63 52.19v-6.73zm22.48 26.59v-2.75H22.23h13.88v-2.75 2.75h73.98-73.98zm79.56-25.88c-2.25 0-4.08-1.82-4.08-4.08s1.83-4.08 4.08-4.08 4.08 1.83 4.08 4.08-1.83 4.08-4.08 4.08" fill="#e0e2e4"/><path d="M111.16 40.24c-2.25 0-4.08 1.83-4.08 4.08s1.83 4.08 4.08 4.08 4.08-1.83 4.08-4.08-1.83-4.08-4.08-4.08" fill="#fff"/><path d="M58.9 51.61l10.24-5.91c1.07-.61 1.07-2.15 0-2.77L58.9 37.02c-1.07-.61-2.4.15-2.4 1.38v11.83c.01 1.23 1.34 2 2.4 1.38" fill="#f3f9f0"/><path d="M115.31 87.94H8c-4.04 0-7.31-3.27-7.31-7.31V8C.69 3.96 3.96.69 8 .69h107.31c4.03 0 7.31 3.27 7.31 7.31v72.63c-.01 4.04-3.28 7.31-7.31 7.31zm.03-43.62c0 2.26-1.83 4.09-4.08 4.09-2.26 0-4.09-1.83-4.09-4.09s1.83-4.09 4.09-4.09 4.08 1.83 4.08 4.09zM9.02 47.69v-6.75m60.14 1.99L58.9 37c-1.07-.62-2.4.15-2.4 1.39v11.86c0 1.23 1.33 2 2.4 1.39l10.26-5.93a1.605 1.605 0 000-2.78zm6.98 1.39c0 8.01-6.49 14.5-14.49 14.5s-14.49-6.49-14.49-14.5 6.49-14.5 14.49-14.5 14.49 6.49 14.49 14.5zM17.63 71.59h88.04m-74.12-2.76v5.52" fill="none" stroke="#12385e" stroke-width="1.382" stroke-linecap="round" stroke-linejoin="round" stroke-miterlimit="10"/><path d="M82.87 44.82c0 10.23-8.3 18.53-18.53 18.53s-18.53-8.3-18.53-18.53 8.29-18.53 18.53-18.53 18.53 8.29 18.53 18.53" fill="#7c878d"/><path d="M59.11 44.82v-5.36c0-.45.49-.74.88-.51l4.64 2.68 4.64 2.68c.39.23.39.79 0 1.02l-4.64 2.68L60 50.69a.587.587 0 01-.88-.51v-5.36z" fill="#fff"/></svg>