<svg viewBox="0 0 142 82.18" xmlns="http://www.w3.org/2000/svg"><path d="M141.73 44.56l-6.12 5.69c-.17.16-.27.38-.27.61v27.51c0 2.1-1.71 3.8-3.81 3.8H28.4c-2.1 0-3.81-1.7-3.81-3.8V9.51c0-2.1 1.71-3.8 3.81-3.8h103.14c2.1 0 3.81 1.7 3.81 3.8v27.51c0 .23.1.45.27.62l6.12 5.69c.35.33.35.9-.01 1.23" fill="#e3efd1"/><path d="M45.05 39.01c0 11.53-9.06 20.95-20.46 21.51V17.5c11.39.56 20.46 9.98 20.46 21.51" fill="#cbe2a4"/><path d="M43.07 39.01c0 11.89-9.64 21.53-21.53 21.53C9.64 60.54 0 50.9 0 39.01s9.64-21.53 21.53-21.53c11.9-.01 21.54 9.64 21.54 21.53" fill="#8dc63f"/><path d="M15.45 39.01v-6.23c0-.53.57-.86 1.03-.59l5.4 3.12 5.4 3.11c.46.27.46.92 0 1.19l-5.4 3.11-5.4 3.11a.688.688 0 01-1.03-.59z" fill="#fff"/><path d="M23.46 78.02c-2.52 0-4.58-2.05-4.58-4.57v-9.46c0-.42.35-.77.77-.77s.77.34.77.77v9.46c0 1.68 1.36 3.04 3.04 3.04H126.6c1.68 0 3.04-1.36 3.04-3.04V45.93c0-.45.19-.88.51-1.18l6.18-5.74-6.18-5.74c-.33-.3-.51-.73-.51-1.18V4.58c0-1.68-1.36-3.04-3.04-3.04H23.46c-1.68 0-3.04 1.36-3.04 3.04v9.46c0 .42-.35.77-.77.77s-.77-.34-.77-.77V4.58c0-2.52 2.05-4.58 4.58-4.58H126.6c2.52 0 4.58 2.05 4.58 4.58v27.54l6.14 5.71a1.597 1.597 0 010 2.36l-6.14 5.71v27.54c0 2.52-2.05 4.57-4.58 4.57H23.46z" fill="#12385e"/></svg>