<svg enable-background="new 0 0 142 82.18" viewBox="0 0 142 82.18" xmlns="http://www.w3.org/2000/svg"><path d="m141.73 44.56-6.12 5.69c-.17.16-.27.38-.27.61v27.51c0 2.1-1.71 3.8-3.81 3.8h-103.13c-2.1 0-3.81-1.7-3.81-3.8v-68.86c0-2.1 1.71-3.8 3.81-3.8h103.14c2.1 0 3.81 1.7 3.81 3.8v27.51c0 .23.1.45.27.62l6.12 5.69c.35.33.35.9-.01 1.23" fill="#e0e2e4"/><path d="m45.05 39.01c0 11.53-9.06 20.95-20.46 21.51v-43.02c11.39.56 20.46 9.98 20.46 21.51" fill="#fff"/><path d="m43.07 39.01c0 11.89-9.64 21.53-21.53 21.53-11.9 0-21.54-9.64-21.54-21.53s9.64-21.53 21.53-21.53c11.9-.01 21.54 9.64 21.54 21.53" fill="#7c878d"/><path d="m15.45 39.01v-6.23c0-.53.57-.86 1.03-.59l5.4 3.12 5.4 3.11c.46.27.46.92 0 1.19l-5.4 3.11-5.4 3.11c-.46.26-1.03-.07-1.03-.59z" fill="#fff"/><path d="m23.46 78.02c-2.52 0-4.58-2.05-4.58-4.57v-9.46c0-.42.35-.77.77-.77s.77.34.77.77v9.46c0 1.68 1.36 3.04 3.04 3.04h103.14c1.68 0 3.04-1.36 3.04-3.04v-27.52c0-.45.19-.88.51-1.18l6.18-5.74-6.18-5.74c-.33-.3-.51-.73-.51-1.18v-27.51c0-1.68-1.36-3.04-3.04-3.04h-103.14c-1.68 0-3.04 1.36-3.04 3.04v9.46c0 .42-.35.77-.77.77s-.77-.34-.77-.77v-9.46c0-2.52 2.05-4.58 4.58-4.58h103.14c2.52 0 4.58 2.05 4.58 4.58v27.54l6.14 5.71c.33.3.52.73.52 1.18s-.19.88-.52 1.18l-6.14 5.71v27.54c0 2.52-2.05 4.57-4.58 4.57h-103.14z" fill="#7c878d"/></svg>