<svg viewBox="0 0 142.42 82.42" xmlns="http://www.w3.org/2000/svg"><path d="M142.15 44.69l-6.13 5.71a.81.81 0 00-.27.62v27.59a3.82 3.82 0 01-3.82 3.82H28.48a3.82 3.82 0 01-3.82-3.82V9.54a3.82 3.82 0 013.82-3.82h103.44a3.82 3.82 0 013.82 3.82v27.59c0 .24.1.46.27.62l6.13 5.71c.37.33.37.9.01 1.23" fill="#cae7f5"/><path d="M45.18 39.12c0 11.57-9.09 21.01-20.52 21.57V17.55c11.43.56 20.52 10.01 20.52 21.57" fill="#a0c4e8"/><path d="M43.19 39.12c0 11.93-9.67 21.6-21.6 21.6C9.67 60.72 0 51.05 0 39.12s9.67-21.6 21.6-21.6c11.92.01 21.59 9.68 21.59 21.6" fill="#0a93d2"/><path d="M17.56 36.77v-4.13c0-.35.38-.57.68-.39l3.58 2.07 3.58 2.07c.3.18.3.61 0 .79l-3.58 2.07-3.58 2.07c-.3.17-.68-.04-.68-.39z" fill="#fff"/><path d="M23.52 78.24c-2.53 0-4.59-2.06-4.59-4.59v-9.49a.77.77 0 011.54 0v9.49c0 1.68 1.37 3.05 3.05 3.05h103.44c1.68 0 3.05-1.37 3.05-3.05V46.07c0-.45.19-.88.52-1.18l6.2-5.76-6.2-5.76a1.63 1.63 0 01-.52-1.18V4.59c0-1.68-1.37-3.05-3.05-3.05H23.52c-1.68 0-3.05 1.37-3.05 3.05v9.49a.77.77 0 01-1.54 0V4.59c0-2.53 2.06-4.59 4.59-4.59h103.44c2.53 0 4.59 2.06 4.59 4.59v27.62l6.16 5.73a1.597 1.597 0 010 2.36l-6.16 5.73v27.62c0 2.53-2.06 4.59-4.59 4.59z" fill="#12385e"/></svg>